IKResults
version=1
nRows=10
nColumns=40
inDegrees=yes

Units are S.I. units (second, meters, Newtons, ...)
Angles are in degrees.

endheader
time	pelvis_tilt	pelvis_list	pelvis_rotation	pelvis_tx	pelvis_ty	pelvis_tz	hip_flexion_r	hip_adduction_r	hip_rotation_r	knee_angle_r	knee_angle_r_beta	ankle_angle_r	subtalar_angle_r	mtp_angle_r	hip_flexion_l	hip_adduction_l	hip_rotation_l	knee_angle_l	knee_angle_l_beta	ankle_angle_l	subtalar_angle_l	mtp_angle_l	lumbar_extension	lumbar_bending	lumbar_rotation	arm_flex_r	arm_add_r	arm_rot_r	elbow_flex_r	pro_sup_r	wrist_flex_r	wrist_dev_r	arm_flex_l	arm_add_l	arm_rot_l	elbow_flex_l	pro_sup_l	wrist_flex_l	wrist_dev_l
      0.76000000	     16.87410042	     -5.15471421	      0.70435330	     -0.43322501	      0.93964924	     -1.05619672	      1.46333737	      1.72826871	    -24.36605315	    -11.13527745	     -0.19434725	     -2.07635897	      8.17234802	     -4.68062414	    -25.23901485	      3.58114839	      8.58692983	    -15.92257788	     -0.27790141	     15.06136501	      3.36865476	     -6.57114286	    -24.81667812	      4.64300018	     -4.01739975	     -0.94309555	     -9.96759781	     -2.65232295	     20.29602696	     89.95437384	      0.00000000	      0.00000000	     11.66753422	     10.41787915	      2.63687585	     30.56560751	     89.95437384	      0.00000000	      0.00000000
      0.77000000	     16.63473215	     -5.00447416	      0.65204237	     -0.42739504	      0.93876333	     -1.05519641	      1.68766376	      1.65837477	    -24.20570237	    -11.39013073	     -0.19879528	     -2.00296554	      7.94919546	     -4.65230755	    -25.21885910	      3.52761872	      8.51128457	    -16.23352375	     -0.28332844	     14.96286996	      3.31017823	     -6.48953097	    -24.57049312	      4.56711317	     -4.03867686	     -1.07929713	    -10.01059224	     -2.61023518	     20.33353799	     89.95437384	      0.00000000	      0.00000000	     11.71678504	     10.16146794	      2.57049955	     30.78387138	     89.95437384	      0.00000000	      0.00000000
      0.78000000	     16.57245256	     -5.01778962	      0.69124113	     -0.42154253	      0.93823975	     -1.05407716	      1.59036375	      1.81918062	    -24.03392251	    -11.57828595	     -0.20207921	     -1.81688563	      7.88036081	     -4.72000564	    -25.47652889	      3.66673101	      8.30492021	    -16.35852916	     -0.28551019	     15.14717090	      3.27419994	     -6.47200467	    -24.50448384	      4.67031604	     -4.09567383	     -1.00272721	    -10.01280027	     -2.58424587	     20.08397096	     89.95437384	      0.00000000	      0.00000000	     11.84491264	      9.90765797	      2.44471672	     30.82903891	     89.95437384	      0.00000000	      0.00000000
      0.79000000	     16.43791042	     -4.97075823	      0.75704630	     -0.41517746	      0.93757165	     -1.05289759	      1.49375788	      1.93293011	    -23.87027072	    -11.81633924	     -0.20623403	     -1.66838107	      7.75089202	     -4.76528407	    -25.66007771	      3.75958513	      8.02737311	    -16.55771801	     -0.28898670	     15.11281015	      3.24520212	     -6.42998991	    -24.30132030	      4.72202410	     -4.16540109	     -1.10714215	    -10.01927904	     -2.56995377	     19.95176363	     89.95437384	      0.00000000	      0.00000000	     11.80806001	      9.70999974	      2.31589646	     31.08556218	     89.95437384	      0.00000000	      0.00000000
      0.80000000	     16.34191900	     -4.90193113	      0.86457148	     -0.40892008	      0.93704161	     -1.05166427	      1.31624159	      2.02861171	    -23.53331071	    -12.12895022	     -0.21169012	     -1.59988286	      7.67143334	     -4.81480558	    -25.85225455	      3.84817120	      7.66930739	    -16.78199130	     -0.29290100	     15.05529049	      3.25059483	     -6.38596172	    -24.15128615	      4.75919497	     -4.30873659	     -1.15473880	     -9.99585066	     -2.58445094	     19.80584196	     89.95437384	      0.00000000	      0.00000000	     11.72781417	      9.53749240	      2.13550582	     31.43314682	     89.95437384	      0.00000000	      0.00000000
      0.81000000	     15.99194072	     -4.68485062	      0.85118757	     -0.40275215	      0.93616134	     -1.05042681	      1.49189412	      1.92061483	    -23.13738173	    -12.60967160	     -0.22008029	     -1.70342398	      7.43210336	     -4.72279014	    -25.62744661	      3.76537482	      7.50145056	    -17.26647724	     -0.30135688	     14.71368659	      3.16521730	     -6.26165914	    -23.77147293	      4.63804548	     -4.35706426	     -1.40530989	    -10.03138120	     -2.57147258	     20.04524156	     89.95437384	      0.00000000	      0.00000000	     11.65003110	      9.30199267	      2.08357442	     31.81158246	     89.95437384	      0.00000000	      0.00000000
      0.82000000	     15.69947072	     -4.51092904	      0.84962522	     -0.39657208	      0.93551848	     -1.04909413	      1.64176011	      1.83047528	    -22.81858621	    -13.03420292	     -0.22748976	     -1.92491793	      7.23768857	     -4.62796995	    -25.48580696	      3.72531367	      7.31289043	    -17.69962240	     -0.30891669	     14.45200874	      3.09668541	     -6.15392499	    -23.44499636	      4.54909650	     -4.37917934	     -1.61742080	    -10.05341771	     -2.55963318	     20.18232089	     89.95437384	      0.00000000	      0.00000000	     11.57787290	      9.07254033	      2.01072049	     32.17026971	     89.95437384	      0.00000000	      0.00000000
      0.83000000	     16.25601006	     -4.83048899	      1.56832875	     -0.38981777	      0.93656906	     -1.04826078	      0.30352359	      2.35969147	    -23.91274573	    -12.12378878	     -0.21160003	     -3.57496042	      7.88094969	     -5.15562250	    -26.58669300	      4.27822344	      5.64178554	    -17.45648110	     -0.30467307	     14.47786281	      4.54555724	     -6.24361528	    -23.95333356	      5.19047117	     -4.88343112	     -1.43868521	     -9.96515329	     -2.83172046	     19.70012531	     89.95437384	      0.00000000	      0.00000000	     11.33010971	      9.11415622	      1.31383971	     32.91762353	     89.95437384	      0.00000000	      0.00000000
      0.84000000	     16.03874274	     -4.89560708	      1.57184999	     -0.38361617	      0.93655362	     -1.04675651	      0.37912385	      2.43208517	    -23.91377612	    -12.36486831	     -0.21580766	     -3.48581817	      7.67839897	     -5.22499054	    -26.55148523	      4.44915918	      5.41265639	    -17.82728193	     -0.31114477	     14.29233511	      4.72597920	     -6.15786024	    -23.73526951	      5.34216674	     -4.81837686	     -1.45464414	     -9.99252363	     -2.80070156	     19.52326460	     89.95437384	      0.00000000	      0.00000000	     11.27251704	      8.86121531	      1.15170952	     33.18141496	     89.95437384	      0.00000000	      0.00000000
      0.85000000	     15.90685621	     -5.06445834	      1.75043531	     -0.37718745	      0.93681907	     -1.04542368	      0.25409975	      2.60285485	    -24.25499169	    -12.54001221	     -0.21886450	     -3.46468665	      7.35889109	     -5.33951338	    -26.56081925	      4.78613829	      5.01331311	    -18.28748631	     -0.31917685	     14.00383588	      5.15850082	     -6.05789681	    -23.56665949	      5.66452160	     -4.90426114	     -1.45764495	    -10.01114632	     -2.77487825	     19.34460673	     89.95437384	      0.00000000	      0.00000000	     11.15535051	      8.64853523	      0.97916442	     33.50476820	     89.95437384	      0.00000000	      0.00000000
